<svg width="154" height="16" viewBox="0 0 154 16" fill="none" xmlns="http://www.w3.org/2000/svg">
<path d="M0.888 12H5.464C8.232 12 9.768 10.816 9.768 8.656C9.768 6.576 8.36 5.472 5.72 5.472H2.056V1.808H9.08V0.799999H0.888V12ZM2.056 11.056V6.416H5.448C7.544 6.416 8.584 7.152 8.584 8.704C8.584 10.256 7.512 11.056 5.448 11.056H2.056ZM18.0386 3.584L14.8706 10.736L11.7026 3.584H10.5186L14.2786 11.984L13.9106 12.8C13.4306 13.856 12.9186 14.208 12.1666 14.208C11.5586 14.208 11.0466 13.984 10.6306 13.568L10.1026 14.416C10.6146 14.928 11.3666 15.184 12.1506 15.184C13.3506 15.184 14.2466 14.656 14.9506 13.008L19.1586 3.584H18.0386ZM27.0885 12H28.4325L24.8805 7.664L28.1925 3.584H26.9605L24.0005 7.28H22.0645V3.584H20.9285V12H22.0645V8.256H23.9845L27.0885 12ZM37.3045 7.792C37.3045 5.264 35.5925 3.52 33.2245 3.52C30.8565 3.52 29.1125 5.296 29.1125 7.792C29.1125 10.288 30.9045 12.08 33.5285 12.08C34.8565 12.08 36.0245 11.6 36.7765 10.704L36.1365 9.968C35.4965 10.704 34.5845 11.072 33.5605 11.072C31.7205 11.072 30.3765 9.904 30.2485 8.144H37.2885C37.2885 8.016 37.3045 7.888 37.3045 7.792ZM33.2245 4.496C34.8725 4.496 36.0725 5.648 36.2165 7.296H30.2485C30.3925 5.648 31.5925 4.496 33.2245 4.496ZM45.3641 3.584H37.8601V4.592H41.0441V12H42.1801V4.592H45.3641V3.584ZM50.5426 6.56L48.1426 6.528V3.584H47.0066V12L50.3346 12.016C52.5586 12.048 53.7906 11.04 53.7906 9.248C53.7906 7.52 52.6546 6.576 50.5426 6.56ZM55.1986 12H56.3346V3.584H55.1986V12ZM50.2706 11.152L48.1426 11.12V7.376L50.2706 7.408C51.8386 7.424 52.6386 8 52.6386 9.248C52.6386 10.512 51.8226 11.168 50.2706 11.152ZM70.6526 11.008V3.584H64.4446L64.3326 6.4C64.2206 8.672 64.0126 10.928 62.7646 11.008H62.2846V14.032H63.3566V12H70.8926V14.032H71.9646V11.008H70.6526ZM65.3726 6.464L65.4686 4.592H69.5166V11.008H64.2686C65.1166 10.368 65.2926 8.384 65.3726 6.464ZM74.8985 3.584L74.7545 6.592C74.6425 8.816 74.5145 11.072 73.1225 11.072C73.0105 11.072 72.8665 11.04 72.7225 11.008L72.6425 11.984C72.9465 12.064 73.2025 12.112 73.4585 12.112C75.2665 12.112 75.6345 9.616 75.7785 6.672L75.8905 4.592H79.9225V12H81.0585V3.584H74.8985ZM87.2159 3.584C85.0399 3.584 83.6319 4.544 83.6319 6.464C83.6319 7.824 84.3679 8.704 85.6639 9.056L83.5679 12H84.7999L86.7519 9.216H87.0719H89.7119V12H90.7519V3.584H87.2159ZM84.7839 6.496C84.7839 5.152 85.6799 4.592 87.2479 4.592H89.7119V8.368H87.1679C85.5999 8.368 84.7839 7.776 84.7839 6.496ZM98.1785 12H99.3145V8.288H104.611V12H105.747V3.584H104.611V7.312H99.3145V3.584H98.1785V12ZM116.351 7.792C116.351 5.264 114.639 3.52 112.271 3.52C109.903 3.52 108.159 5.296 108.159 7.792C108.159 10.288 109.951 12.08 112.575 12.08C113.903 12.08 115.071 11.6 115.823 10.704L115.183 9.968C114.543 10.704 113.631 11.072 112.607 11.072C110.767 11.072 109.423 9.904 109.295 8.144H116.335C116.335 8.016 116.351 7.888 116.351 7.792ZM112.271 4.496C113.919 4.496 115.119 5.648 115.263 7.296H109.295C109.439 5.648 110.639 4.496 112.271 4.496ZM124.226 7.648C125.106 7.328 125.65 6.688 125.65 5.744C125.65 4.352 124.482 3.584 122.578 3.584H118.866V12H122.69C124.882 12 125.938 11.168 125.938 9.712C125.938 8.608 125.394 7.92 124.226 7.648ZM119.97 4.48H122.498C123.794 4.48 124.514 4.944 124.514 5.888C124.514 6.832 123.794 7.328 122.498 7.328H119.97V4.48ZM122.642 11.104H119.97V8.176H122.754C124.178 8.176 124.818 8.64 124.818 9.648C124.818 10.656 124.066 11.104 122.642 11.104ZM135.976 7.792C135.976 5.264 134.264 3.52 131.896 3.52C129.528 3.52 127.784 5.296 127.784 7.792C127.784 10.288 129.576 12.08 132.2 12.08C133.528 12.08 134.696 11.6 135.448 10.704L134.808 9.968C134.168 10.704 133.256 11.072 132.232 11.072C130.392 11.072 129.048 9.904 128.92 8.144H135.96C135.96 8.016 135.976 7.888 135.976 7.792ZM131.896 4.496C133.544 4.496 134.744 5.648 134.888 7.296H128.92C129.064 5.648 130.264 4.496 131.896 4.496ZM142.011 12.08C143.435 12.08 144.635 11.504 145.307 10.416L144.459 9.84C143.883 10.688 142.987 11.072 142.011 11.072C140.171 11.072 138.827 9.776 138.827 7.792C138.827 5.824 140.171 4.512 142.011 4.512C142.987 4.512 143.883 4.912 144.459 5.76L145.307 5.184C144.635 4.08 143.435 3.52 142.011 3.52C139.499 3.52 137.675 5.28 137.675 7.792C137.675 10.304 139.499 12.08 142.011 12.08ZM153.27 3.584H145.766V4.592H148.95V12H150.086V4.592H153.27V3.584Z" fill="white"/>
</svg>
